<?xml version="1.0" standalone="no"?>
<!DOCTYPE svg PUBLIC "-//W3C//DTD SVG 20010904//EN"
 "http://www.w3.org/TR/2001/REC-SVG-20010904/DTD/svg10.dtd">
<svg version="1.0" xmlns="http://www.w3.org/2000/svg"
 width="300.000000pt" height="300.000000pt" viewBox="0 0 300.000000 300.000000"
 preserveAspectRatio="xMidYMid meet">
<metadata>
Created by potrace 1.11, written by Peter Selinger 2001-2013
</metadata>
<g transform="translate(0.000000,300.000000) scale(0.100000,-0.100000)"
fill="#000000" stroke="none">
<path d="M1856 2955 c-13 -10 -42 -15 -83 -15 -48 0 -67 -4 -78 -17 -59 -72
-55 -70 -68 -49 -7 10 -21 30 -33 44 -20 25 -22 25 -68 12 -41 -11 -51 -11
-87 6 -49 22 -64 15 -98 -45 -18 -33 -36 -48 -86 -72 -60 -28 -65 -33 -84 -85
-12 -30 -21 -64 -21 -74 0 -25 -2 -25 -50 0 -51 26 -72 25 -100 -5 -19 -20
-33 -25 -75 -25 -57 0 -70 -9 -100 -70 -10 -19 -31 -46 -47 -60 -21 -17 -37
-48 -53 -95 l-22 -70 -49 -5 c-48 -5 -49 -5 -62 -52 -12 -44 -15 -47 -50 -50
l-37 -3 -2 -60 c-2 -33 -8 -85 -14 -115 -10 -54 -7 -76 25 -151 6 -13 -1 -20
-29 -29 -36 -12 -37 -13 -31 -53 6 -33 3 -44 -16 -64 -23 -24 -20 -32 17 -47
6 -2 5 -11 -2 -25 -17 -28 -17 -30 12 -41 25 -9 25 -11 10 -39 -8 -16 -24 -32
-35 -36 -24 -8 -25 -22 -3 -47 15 -16 15 -23 4 -54 -14 -39 -3 -64 30 -64 23
0 40 -31 39 -72 -1 -34 30 -170 50 -223 7 -17 16 -57 21 -90 26 -188 46 -258
69 -252 6 1 25 -35 44 -81 158 -389 501 -635 848 -609 109 9 189 31 293 83
202 100 365 286 466 534 18 44 39 80 46 80 21 0 39 48 72 190 17 74 40 169 52
210 11 41 26 139 32 217 12 136 14 144 42 173 30 31 29 42 -7 92 -10 14 -8 24
10 56 26 46 27 81 7 140 -14 40 -14 46 5 89 26 59 25 65 -7 104 -18 21 -29 48
-33 78 -5 42 -8 48 -49 68 -24 12 -46 24 -48 27 -3 3 6 25 21 50 34 57 33 85
-4 143 -18 27 -30 62 -31 82 -2 70 -11 85 -58 97 -35 8 -46 16 -57 43 -15 35
-19 36 -91 15 -21 -6 -23 -3 -23 32 -1 60 -17 117 -39 135 -11 9 -47 22 -80
28 -59 12 -63 14 -99 69 -40 62 -70 75 -106 47z m-42 -856 c128 -26 202 -66
275 -146 37 -41 69 -88 82 -122 12 -31 33 -66 46 -79 43 -39 94 -184 104 -292
19 -220 28 -448 19 -521 -10 -85 -59 -224 -120 -337 -292 -542 -880 -650
-1272 -234 -105 112 -185 243 -255 419 -25 64 -27 77 -26 233 1 386 46 628
136 736 14 16 41 63 60 105 60 126 148 191 314 230 174 41 458 45 637 8z"/>
<path d="M970 1453 c-8 -3 -30 -19 -48 -36 -39 -38 -57 -93 -43 -139 l9 -33 1
33 c1 18 7 45 15 61 19 36 103 101 132 101 24 0 104 -70 123 -107 6 -12 11
-37 12 -55 0 -27 2 -30 9 -13 23 53 -9 141 -64 175 -32 19 -109 26 -146 13z"/>
<path d="M1885 1441 c-42 -26 -61 -50 -73 -93 -10 -36 -2 -102 14 -116 4 -4 4
5 1 19 -11 45 10 93 63 142 60 56 83 58 139 14 47 -37 70 -67 81 -105 8 -26 8
-26 9 6 1 48 -26 99 -68 128 -45 30 -121 33 -166 5z"/>
<path d="M996 1347 c-21 -16 -24 -60 -6 -82 19 -23 66 -19 84 7 21 30 20 44
-4 68 -23 23 -49 26 -74 7z"/>
<path d="M1926 1344 c-34 -33 -9 -94 38 -94 25 0 56 28 56 51 0 48 -62 76 -94
43z"/>
<path d="M1180 554 c0 -31 90 -110 168 -147 59 -28 77 -32 152 -32 75 0 92 4
146 31 34 17 78 44 98 60 40 31 82 91 72 101 -4 4 -148 7 -321 7 -314 1 -315
1 -315 -20z"/>
</g>
</svg>
